<?xml version="1.0" standalone="no"?><!DOCTYPE svg PUBLIC "-//W3C//DTD SVG 1.1//EN" "http://www.w3.org/Graphics/SVG/1.1/DTD/svg11.dtd"><svg t="1583918869236" class="icon" viewBox="0 0 1024 1024" version="1.1" xmlns="http://www.w3.org/2000/svg" p-id="13709" xmlns:xlink="http://www.w3.org/1999/xlink" width="200" height="200"><defs><style type="text/css"></style></defs><path d="M467.66324051 908.74643091q-43.0758262-38.97910437-91.21230836-81.3922251t-89.52542302-78.31968393q-48.1967287-40.54549741-96.39345657-80.54878161-9.27787006 0.84344266-18.61598585 0.84344265a145.79510312 145.79510312 0 0 1-16.02541214 0.84344266H141.67261919a50.96804041 50.96804041 0 0 1-37.11148021-13.61557562A45.18443243 45.18443243 0 0 1 90.16236643 622.93983181V409.18734121h0.84344265L90.16236643 408.28365283a53.67910638 53.67910638 0 0 1 14.76024774-39.0393501 49.04017136 49.04017136 0 0 1 36.75000502-15.2422152h48.19672871q77.65697845-66.27050135 141.03567581-118.74468906 26.44795432-22.47172476 53.19713891-44.52172779t47.29304032-39.46107183q21.14631463-18.07377347 35.48484064-29.70123349c9.45860806-7.83196848 15.42295322-12.6516415 17.65205173-14.33852683a64.82459976 64.82459976 0 0 1 40.90697342-16.98934707 32.17131655 32.17131655 0 0 1 24.45983953 15.24221603 87.23607798 87.23607798 0 0 1 12.04918259 33.07500412 209.11355474 209.11355474 0 0 1 3.37377063 35.60533374v687.22509952a111.63567178 111.63567178 0 0 1-6.02459087 34.34016934 62.59550125 62.59550125 0 0 1-18.07377348 28.85779084 39.46107101 39.46107101 0 0 1-30.8459056 8.91639486 79.22337232 79.22337232 0 0 1-43.01558049-24.58033182z m303.27791364-123.0221489" p-id="13710" fill="#e6e6e6"></path><path d="M895.89117209 473.95169526h-183.26805935a38.01516943 38.01516943 0 0 0-37.65369426 38.37664462v12.04918258a38.01516943 38.01516943 0 0 0 37.65369426 38.3163989h183.26805935a37.9549237 37.9549237 0 0 0 37.65369424-38.3163989v-12.04918258a38.01516943 38.01516943 0 0 0-37.65369424-38.37664462z" p-id="13711" fill="#e6e6e6"></path><path d="M820.22230841 122.41680801L686.65712506 247.9692857a38.01516943 38.01516943 0 0 0-1.14467212 53.73935129l8.19344367 8.73565769a38.01516943 38.01516943 0 0 0 53.67910638 2.10860622l133.50493762-125.55247685a38.01516943 38.01516943 0 0 0 1.20491785-53.73935212l-8.19344367-8.73565686a38.07541516 38.07541516 0 0 0-53.79959784-2.10860706z" p-id="13712" fill="#e6e6e6"></path><path d="M888.36043308 834.5234688l-144.59018527-112.78034389a38.01516943 38.01516943 0 0 0-53.31763038 7.10901727l-7.35000101 9.39836233a38.01516943 38.01516943 0 0 0 6.02459088 53.37787611l144.59018528 112.78034472a37.9549237 37.9549237 0 0 0 53.25738464-7.04877155l7.35000101-9.39836233a38.01516943 38.01516943 0 0 0-6.02459088-53.43812265z" p-id="13713" fill="#e6e6e6"></path></svg>